<?xml version="1.0" encoding="UTF-8"?>
<!-- Generator: visioncortex VTracer -->
<svg id="svg" version="1.1" xmlns="http://www.w3.org/2000/svg" style="display: block;"
    viewBox="0 0 180 180">
    <path
        d="M0,0 L23,0 L35,2 L51,7 L59,7 L67,4 L80,3 L85,5 L89,10 L91,31 L93,34 L96,35 L96,37 L100,39 L103,44 L103,57 L98,63 L100,73 L100,102 L96,117 L90,130 L88,134 L86,134 L84,140 L71,154 L63,160 L58,162 L58,164 L42,172 L24,177 L15,178 L2,178 L-12,176 L-26,171 L-30,169 L-30,167 L-34,167 L-34,165 L-38,164 L-41,162 L-41,160 L-46,158 L-49,155 L-49,153 L-51,153 L-51,151 L-53,151 L-58,145 L-58,143 L-60,143 L-63,138 L-63,136 L-65,136 L-72,122 L-77,104 L-77,72 L-74,59 L-67,44 L-65,44 L-64,39 L-55,28 L-53,28 L-51,24 L-48,23 L-47,20 L-41,16 L-39,16 L-39,14 L-34,13 L-34,11 L-23,6 L-13,3 L-7,1 Z "
        transform="translate(77,1)" style="fill: #F8C227;" />
    <path
        d="M0,0 L23,0 L35,2 L51,7 L59,7 L67,4 L80,3 L85,5 L89,10 L91,31 L93,34 L96,35 L96,37 L100,39 L103,44 L103,57 L98,63 L100,73 L100,102 L96,117 L90,130 L88,134 L86,134 L84,140 L71,154 L63,160 L58,162 L58,164 L42,172 L24,177 L15,178 L2,178 L-12,176 L-26,171 L-30,169 L-30,167 L-34,167 L-34,165 L-38,164 L-41,162 L-41,160 L-46,158 L-49,155 L-49,153 L-51,153 L-51,151 L-53,151 L-58,145 L-58,143 L-60,143 L-63,138 L-63,136 L-65,136 L-72,122 L-77,104 L-77,72 L-74,59 L-67,44 L-65,44 L-64,39 L-55,28 L-53,28 L-51,24 L-48,23 L-47,20 L-41,16 L-39,16 L-39,14 L-34,13 L-34,11 L-23,6 L-13,3 L-7,1 Z M3,7 L-16,11 L-33,19 L-43,27 L-50,33 L-59,46 L-67,62 L-71,78 L-71,96 L-67,114 L-59,131 L-50,143 L-40,153 L-26,162 L-18,166 L-4,170 L22,170 L34,167 L49,160 L60,153 L70,144 L78,135 L86,121 L91,108 L93,99 L93,74 L90,64 L87,63 L89,59 L97,54 L96,47 L93,42 L84,39 L83,20 L80,12 L78,10 L72,10 L60,15 L48,15 L33,9 L24,7 Z "
        transform="translate(77,1)" style="fill: #060400;" />
    <path
        d="M0,0 L4,1 L3,4 L0,5 L-2,18 L-8,29 L-15,37 L-27,46 L-43,53 L-54,55 L-69,55 L-79,51 L-87,45 L-95,37 L-104,21 L-106,21 L-107,28 L-111,26 L-112,25 L-112,18 L-107,12 L-93,12 L-77,9 L-61,6 L-25,3 L-22,2 L-4,1 Z "
        transform="translate(154,92)" style="fill: #0D0B06;" />
    <path
        d="M0,0 L12,0 L18,2 L21,6 L22,10 L22,18 L21,19 L11,19 L5,14 L-6,14 L-13,18 L-15,23 L-15,35 L-13,43 L-10,48 L-3,48 L0,44 L1,39 L-3,37 L-2,31 L7,27 L12,26 L26,26 L29,27 L31,30 L31,35 L29,37 L29,59 L27,62 L23,64 L16,64 L14,63 L13,51 L10,56 L3,61 L0,62 L-15,62 L-21,58 L-25,53 L-30,37 L-31,33 L-31,25 L-27,17 L-19,9 L-11,4 Z "
        transform="translate(68,26)" style="fill: #080601;" />
    <path
        d="M0,0 L10,0 L16,5 L19,11 L19,17 L17,19 L6,19 L1,14 L-10,14 L-15,17 L-17,17 L-17,39 L-15,47 L-5,46 L-3,44 L-2,39 L-5,39 L-3,32 L4,29 L14,27 L26,27 L27,28 L27,34 L23,36 L24,44 L24,59 L21,61 L11,62 L10,61 L9,51 L7,55 L-2,60 L-19,60 L-25,55 L-30,45 L-32,34 L-32,20 L-25,9 L-20,5 L-7,1 Z "
        transform="translate(133,24)" style="fill: #080601;" />
    <path
        d="M0,0 L17,0 L15,5 L11,13 L-6,22 L-7,24 L0,23 L9,20 L14,19 L12,23 L0,32 L-13,38 L-25,41 L-43,41 L-50,38 L-50,30 L-49,29 L-34,29 L-35,26 L-48,24 L-51,23 L-57,16 L-62,14 L-62,11 L-50,8 L-15,2 Z "
        transform="translate(125,101)" style="fill: #F7F7F6;" />
    <path d="M0,0 L5,0 L6,5 L2,9 L-5,13 L-14,19 L-20,19 L-21,15 L-15,8 L-3,1 Z "
        transform="translate(57,18)" style="fill: #FEFCF3;" />
    <path d="M0,0 L3,0 L2,4 L-3,10 L-5,15 L-8,15 L-7,9 L-1,1 Z " transform="translate(49,38)"
        style="fill: #D1D1D0;" />
    <path d="M0,0 L3,0 L2,4 L-2,9 L-4,12 L-6,12 L-5,6 Z " transform="translate(112,34)"
        style="fill: #D1D1D1;" />
</svg>